<svg preserveAspectRatio="none" width="100%" height="100%" overflow="visible" style="display: block;" viewBox="0 0 2676 141" fill="none" xmlns="http://www.w3.org/2000/svg">
<g id="Vector 2">
<path d="M398.407 79.8714C216.397 36.6231 57.6317 61.8513 1 79.8714V140H2675V98.8927C2599.36 -5.22358 2501.66 20.8055 2462.26 46.8346C2411.05 82.2074 2277.3 131.729 2152.02 46.8346C1995.42 -59.2839 1892.01 46.8346 1762 85.8781C1631.99 124.922 1522.67 66.8569 1420.73 46.8346C1318.79 26.8122 1241.97 85.8781 1147.42 102.897C1060.28 118.583 979.004 36.8234 813.541 46.8346C648.078 56.8457 625.918 133.932 398.407 79.8714Z" fill="var(--fill-0, white)"/>
<path d="M52.4012 67.2285C82.9741 61.5912 123.801 57.5042 154.82 56.3263C164.503 55.9451 159.604 56.1605 166.353 55.9457C179.419 55.5718 191.743 55.4631 204.689 55.6433C209.023 55.7103 203.635 55.6705 208.166 55.7457C232.833 56.2018 256.219 57.5221 281.164 59.9695C320.784 63.8839 359.929 70.386 398.482 79.554C478.751 98.8881 564.244 108.467 645.515 82.7237C684.925 71.2307 732.731 55.5155 775.014 50.3556C779.916 49.6921 776.991 50.0508 777.924 49.9225C792.754 48.0444 787.628 48.7575 797.427 47.7952C802.659 47.3236 807.94 46.9249 813.527 46.5905C847.521 44.4429 883.722 46.5182 915.114 51.8992C930.568 54.6403 915.049 51.688 930.642 54.7395C931.715 54.9604 927.812 54.2068 932.02 55.0679C941.636 56.9667 959.589 61.4256 966.89 63.5198C980.969 67.4903 983.221 68.2133 996.415 72.3835C1014.35 78.0881 1035.56 85.6527 1054.86 91.6607C1058.98 92.9275 1053.52 91.2195 1060.14 93.2237C1066.69 95.3048 1084.37 99.9345 1090.4 100.99C1096.46 102.175 1093.87 101.689 1094.94 101.901C1103.71 103.93 1124.79 105.069 1127.5 104.651C1134.29 104.498 1140.9 103.839 1147.38 102.671C1188 95.2403 1222.67 81.3197 1260.43 67.929C1293.58 56.0162 1330.1 44.9876 1363.77 43.0156C1383.89 41.6995 1402.59 43.0601 1420.77 46.6302C1438.61 50.1472 1456.16 54.6765 1474.73 59.8347C1478.69 60.9378 1474.06 59.5956 1478.9 60.9497C1530.05 75.3994 1580.76 91.4609 1633.58 96.8738C1638.87 97.4042 1632.06 96.7766 1637.33 97.2926C1669.7 101.444 1721.29 96.7372 1739.92 91.4068C1746.95 89.846 1754.39 87.9288 1761.93 85.6645C1777.29 81.0769 1792.68 75.3181 1804.96 70.3644C1816.71 65.5585 1805.35 70.3527 1819.72 64.2649C1822.95 62.8729 1818.73 64.6476 1823.57 62.5523C1843.96 53.7176 1865.93 43.3912 1886.09 34.6057C1890.18 32.8231 1889.05 33.2809 1890.21 32.7718C1899.96 28.4504 1916.48 22.0119 1920.13 20.7279C1947.75 10.6534 1968.67 4.82136 1995.96 1.88645C2002.29 1.3053 1994.79 1.91659 2000.89 1.40313C2032.6 -1.25436 2065.82 4.29115 2094.76 15.8754C2101.14 18.4328 2095.27 16.1181 2098.3 17.349C2111.71 23.0689 2114.6 24.4514 2126.9 31.1169C2129.45 32.5401 2128 31.7714 2128.46 32.0345C2135.79 36.218 2142 40.0617 2143.8 41.2064C2146.68 43.0389 2149.44 44.8612 2152.12 46.6782C2170.46 58.9018 2184.83 66.8084 2206.28 75.4026C2209.22 76.5336 2202.62 73.9674 2210.86 77.101C2266.43 98.2822 2332.02 98.0448 2388.05 80.9285C2396.72 78.279 2390.55 80.2073 2391.1 80.0465C2400.06 77.3244 2405.7 75.0989 2408.45 74.0688C2430.04 65.9473 2449.21 55.7918 2462.16 46.6892C2462.38 46.5453 2462.59 46.4041 2462.8 46.2638C2532.93 -0.174206 2631.71 30.2132 2675.12 98.8052L2675.15 98.8443L2675.15 98.8927C2675.14 112.602 2675.13 126.305 2675.12 140L2675.12 140.124L2675 140.124C2670.66 140.12 2666.32 140.116 2661.99 140.112C2660.74 140.111 2662.98 140.069 2660.48 140.068C2630.41 140.044 2636.19 140.109 2616.29 140.189C2611.28 140.209 2596.03 140.113 2594.68 140.106C2589.76 140.08 2594.86 140.017 2593.22 140.012C2579.6 139.973 2581.82 140.179 2563.44 140.179C2562.87 140.179 2565.28 140.141 2563.74 140.137C2558.95 140.125 2554.2 140.14 2549.51 140.127C2538.78 140.097 2534.96 139.997 2518.57 140.055C2516.5 140.063 2519.66 140.179 2503.26 140.174C2496.72 140.172 2467.77 140.174 2459.66 140.166C2451.56 140.158 2457.12 140.121 2456.54 140.119C2434.71 140.069 2442.99 140.049 2432.05 139.975C2421.11 139.901 2424.15 140.077 2419.69 140.096C2415.22 140.116 2399.21 140.075 2395.28 140.06C2391.35 140.046 2396.25 140.022 2392.76 140.014C2369.57 139.961 2382.58 140.101 2374.94 140.129C2356.93 140.195 2342.91 140.065 2326.42 140.052C2321.96 140.049 2325.6 140.078 2321.63 140.081C2305.9 140.092 2296.44 140.051 2278.54 140.088C2275.61 140.094 2261.14 140.172 2251.78 140.115C2250.45 140.107 2254.22 140.074 2247.51 140.067C2237.5 140.056 2219.45 140.049 2208.69 140.06C2200.74 140.068 2209.85 140.121 2199.84 140.105C2195.4 140.097 2203.64 140.066 2195.28 140.055C2186.97 140.044 2165.73 140.045 2157.64 140.046C2149.57 140.047 2153.99 140.088 2153.34 140.09C2149.39 140.106 2133.9 140.125 2132.54 140.125C2063.5 140.13 1999.84 140.062 1932.63 140.085C1927.35 140.086 1930.86 140.129 1930.06 140.13C1912 140.148 1926.24 140.034 1913.62 139.996C1915.45 140.083 1908 140.067 1895.28 140.077C1889.15 140.081 1892.49 140.115 1891.93 140.118C1882.84 140.169 1876.51 140.103 1874.88 140.09C1868.86 140.04 1862.31 140.099 1858.21 140.066C1854.12 140.033 1863.54 139.984 1851.34 139.985C1847.92 140.016 1856.98 140.097 1847.72 140.11C1812.77 140.16 1747.54 140.096 1719.44 140.09C1691.4 140.083 1682.34 140.089 1666 140.077C1636.48 140.057 1647.3 140.117 1628.97 140.145C1610.59 140.172 1619.53 140.024 1616.89 139.993C1614.29 139.961 1611.46 139.994 1608.24 139.976C1605.02 139.959 1611.98 139.937 1604.42 139.93C1596.85 139.924 1576.16 139.98 1573.48 140.014C1567.81 140.084 1577.13 140.158 1557.11 140.132C1555.96 140.131 1559.69 140.092 1555.28 140.088C1520.26 140.058 1483.87 140.056 1448.89 140.029C1444.08 140.026 1448.38 139.982 1445.58 139.98C1416.43 139.952 1426.85 140.025 1410.87 140.106C1414.46 139.998 1405.62 139.932 1383.49 139.932C1370.19 139.931 1372.48 139.978 1363.88 140.012C1361.3 140.022 1351.88 139.989 1350.18 140.011C1344.55 140.084 1353.42 140.165 1330.6 140.133C1329.6 140.131 1332.79 140.091 1329.33 140.089C1306.98 140.073 1304.3 140.149 1280.13 140.158C1261.19 140.165 1227.5 140.119 1205.93 140.112C1206.39 139.99 1186.01 140.018 1177.75 140.102C1163.75 140.098 1148.63 140.103 1135.11 140.092C1130.45 140.088 1133.51 140.053 1132.92 140.049C1123.92 139.989 1117.83 140.071 1114.81 140.074C1082.06 140.105 1055.39 140.043 1024.13 140.103C1023.02 140.106 1021.23 140.19 1012.87 140.128C1012.33 140.124 1022.65 140.086 1007.95 140.083C993.25 140.08 965.532 140.035 945.12 140.074C940.18 140.083 927.686 140.151 917.658 140.098C916.322 140.091 917.784 140.067 915.855 140.053C909.621 140.01 906.217 140.095 898.89 140.023C891.563 139.951 876.322 139.897 855.736 139.947C855.08 139.948 850.207 140.015 843.733 140.014C833.399 140.013 818.728 139.999 807.937 139.999C802.771 139.999 806.077 140.041 805.181 140.042C770.442 140.065 745.717 140.028 708.502 140.012C701.68 140.009 682.075 140.066 668.868 140.021C654.366 139.971 669.268 139.766 635.934 139.815C622.49 139.834 605.468 140.095 581.308 139.96C534.449 139.993 491.114 139.924 444.125 139.972C442.012 139.974 435.33 140.047 430.362 140.046C422.987 140.044 418.939 140.01 413.673 140.008C391.607 139.998 371.415 140.027 350.14 140.023C342.062 140.021 344.887 139.986 335.253 139.984C325.625 139.982 319.205 140.028 306.158 140.006C296.304 139.989 286.453 139.894 273.374 139.883C272.875 139.976 263.892 139.974 247.926 139.999C244.857 140.004 248.148 140.036 246.696 140.04C240.788 140.057 235.32 140.03 229.71 140.048C228.345 140.053 228.281 140.085 227.165 140.09C217.678 140.137 202.049 140.065 199.364 140.053C189.076 140.005 184.268 140.047 176.377 140.028C168.498 140.009 180.278 139.986 171.075 139.975C151.999 139.951 127.488 139.956 108.114 139.955C100.384 139.955 105.658 139.997 104.551 139.998C88.5662 140.009 72.4024 139.964 63.5388 140.048C52.4564 139.829 53.8997 140.07 31.051 140.026C29.2514 140.022 26.9617 139.918 33.8716 139.903C40.7811 139.888 51.2586 139.92 60.8457 139.897C63.1162 139.891 76.1212 139.794 77.8955 139.788C91.7947 139.742 93.7643 139.897 94.4997 139.906C102.839 139.997 118.731 139.893 122.916 139.885C142.061 139.852 158.328 139.874 174.341 139.85C184.814 139.835 185.839 139.734 194.062 139.737C221.401 139.747 230.944 139.889 256.705 139.766C262.23 139.74 256.74 139.629 276.533 139.716C277.776 139.721 292.473 139.801 300.963 139.751C302.029 139.744 301.995 139.712 303.401 139.709C312.826 139.692 319.111 139.717 329.379 139.705C339.645 139.693 351.99 139.674 363.711 139.685C370.775 139.692 379.839 139.752 383.221 139.767C392.769 139.809 403.008 139.74 408.923 139.791C414.889 139.843 403.226 139.922 418.869 139.955C419.448 139.871 420.779 139.785 421.71 139.7C455.99 139.703 489.72 139.73 524.114 139.727C528.379 139.726 524.018 139.681 528.589 139.679C547.875 139.672 564.721 139.704 584.722 139.691C600.203 139.681 617.18 139.633 633.369 139.621C643.257 139.717 667.279 139.685 684.73 139.694C690.843 139.697 690.434 139.722 694.781 139.731C711.182 139.762 703.497 139.677 707.993 139.663C727.283 139.606 728.935 139.799 751.677 139.794C752.882 139.794 767.611 139.691 769.639 139.685C782.528 139.643 771.773 139.72 779.839 139.728C794.567 139.742 804.802 139.766 822.082 139.736C827.12 139.727 839.208 139.663 848.992 139.713C850.28 139.719 849.569 139.753 850.604 139.755C869.358 139.788 869.851 139.682 880.568 139.646C891.287 139.61 907.842 139.683 911.211 139.704C920.025 139.759 904.457 139.728 903.98 139.733C898.373 139.797 910.447 139.786 919.672 139.792C921.008 139.896 933.91 139.89 929.236 139.797C928.704 139.787 921.525 139.796 919.672 139.792C927.77 139.689 941.949 139.676 957.61 139.772C964.941 139.817 958.011 139.869 980.279 139.85C990.386 139.841 986.481 139.769 995.399 139.75C1015.78 139.705 1042.25 139.772 1063.26 139.762C1070.88 139.758 1063.46 139.718 1068.67 139.714C1082.49 139.704 1094.69 139.733 1108.58 139.718C1109.83 139.717 1106.76 139.675 1111.08 139.675C1143.82 139.67 1172.32 139.697 1206.51 139.697C1223.02 139.698 1252.55 139.675 1269.66 139.679C1299.31 139.687 1335.79 139.747 1361.12 139.732C1377.64 139.723 1374.02 139.682 1381.1 139.654C1394.76 139.599 1418.94 139.697 1422.19 139.712C1422.29 139.713 1408.08 139.722 1415.66 139.743C1420.07 139.787 1422.03 139.712 1422.19 139.712C1424.33 139.722 1452.73 139.731 1458.37 139.723C1461.44 139.719 1459.72 139.68 1461.32 139.678C1499.29 139.643 1537.34 139.634 1575.85 139.652C1576.53 139.653 1575.51 139.696 1577.1 139.698C1599.4 139.717 1613.68 139.664 1632.07 139.632C1650.46 139.6 1665.04 139.611 1675.93 139.686C1689.8 139.676 1709.7 139.709 1721.16 139.73C1732.61 139.75 1734.21 139.665 1735.22 139.663C1766.65 139.609 1784.82 139.658 1817.43 139.665C1832.94 139.669 1863.69 139.657 1880.48 139.648C1893.75 139.64 1901.74 139.66 1913.96 139.647C1915.62 139.645 1913.95 139.608 1914.45 139.606C1928.09 139.561 1921.54 139.653 1924.35 139.67C1934.57 139.73 1940.88 139.762 1958.35 139.734C1962.38 139.727 1974.12 139.594 1981.46 139.586C1991.01 139.576 1987.41 139.624 1997.41 139.613C1998.27 139.612 1998.09 139.582 2004.26 139.583C2032.91 139.589 2064.15 139.606 2093.92 139.603C2097.99 139.603 2092.77 139.556 2098.65 139.555C2126.22 139.55 2156.44 139.551 2183.3 139.573C2189.91 139.579 2185.77 139.611 2187.2 139.621C2196.02 139.68 2208.51 139.595 2210.57 139.593C2259.76 139.552 2297.4 139.629 2347.52 139.592C2350.25 139.59 2371.26 139.499 2380.63 139.577C2381.27 139.582 2390.54 139.663 2398.74 139.608C2399.24 139.604 2393.47 139.563 2403.55 139.567C2413.63 139.571 2429.86 139.544 2443.71 139.589C2448.1 139.604 2458.47 139.684 2471.56 139.62C2472.41 139.615 2492.61 139.471 2499.83 139.571C2500.99 139.587 2499.77 139.692 2515.39 139.638C2518.37 139.628 2512.96 139.604 2520.82 139.59C2532.87 139.567 2548.83 139.595 2563.63 139.548C2566.22 139.54 2577.21 139.468 2586.03 139.523C2587.41 139.531 2584.79 139.566 2589.44 139.57C2611.59 139.589 2634.77 139.566 2657.26 139.59C2665.22 139.599 2661.15 139.656 2669.45 139.671C2671.03 139.674 2672.92 139.677 2675 139.679L2674.68 140C2674.69 131.164 2674.7 118.862 2674.67 111.829C2674.65 103.14 2674.56 112.632 2674.55 99.6146C2674.55 99.374 2674.55 99.1333 2674.55 98.8927L2674.64 99.157C2642.66 53.4074 2589.65 19.3111 2532.65 24.3312C2524.32 25.0865 2531.19 24.2322 2519 25.9391C2502.34 28.609 2481.23 34.9859 2462.52 47.218C2431.25 68.6776 2392.36 81.4349 2368.21 86.7222C2337.08 92.9817 2376.28 85.2312 2352.46 89.7432C2340.92 91.7789 2328.38 93.0243 2325.53 93.2234C2298.06 95.1959 2278.7 93.934 2254.28 89.6638C2249.25 88.712 2254.18 89.7068 2249.89 88.8641C2235.28 85.9427 2220.23 81.4514 2206.96 76.2785C2201.04 73.9397 2202.05 74.3804 2196.69 72.0783C2183.75 66.3849 2172.87 60.5727 2161.19 53.292C2160.14 52.6306 2167.25 57.0294 2158.49 51.5406C2156.34 50.1631 2154.1 48.6954 2151.81 47.1401C2139.09 38.4843 2124.14 29.6361 2109.33 22.7696C2104 20.3724 2103.88 20.1862 2092.45 15.6374C2090.01 14.7743 2093.19 15.5424 2079.6 11.1308C2077.32 10.1511 2054.01 4.083 2042.22 2.9733C2039.08 2.54318 2031.25 1.67238 2024.3 1.47383C2023.37 1.45009 2027.1 1.5904 2021.41 1.43969C2001.32 0.992383 1980.2 3.76173 1960.17 8.78831C1954.81 10.15 1962.78 8.13813 1954.83 10.215C1932.92 15.9528 1906.54 26.3542 1886.27 35.2389C1878.79 38.5064 1883.95 36.213 1883.4 36.4468C1874.61 40.2395 1869.51 42.6471 1866.62 43.9544C1848.64 52.0933 1834.98 58.3596 1818.24 65.5114C1813.62 67.4752 1816.91 66.1207 1815.99 66.5141C1806.44 70.5521 1813.54 67.515 1807.47 70.0104C1793.25 75.8193 1777.44 81.6953 1762.12 86.2823C1759.08 87.1958 1756.09 88.0464 1753.15 88.8351C1746.58 90.5622 1754.01 88.6806 1748.05 90.2074C1712.8 99.1949 1674.64 101.37 1639.36 98.0976C1632.73 97.4814 1636.91 97.8299 1635.53 97.6926C1625.98 96.7614 1612.1 94.7971 1608.9 94.2536C1594.4 91.8851 1588.82 90.6898 1576.15 87.9259C1527.42 77.3723 1471.65 57.3752 1420.65 47.2694C1406.81 44.5414 1393.24 43.2847 1380.51 43.1845C1301.82 43.7719 1247.59 77.8842 1176.04 96.8613C1171.47 98.066 1176.09 96.9063 1172.15 97.9277C1163.98 100.021 1155.78 101.844 1147.5 103.335C1103.26 111.219 1060.68 94.1447 1019.08 80.553C1015.02 79.1896 1020.88 81.2012 1014.33 79.0089C1000.85 74.4884 983.689 68.9605 969.858 65.079C963.129 63.1933 972.149 65.662 965.396 63.7859C949.571 59.4203 932.394 55.4722 915.76 52.6737C908.64 51.4977 919.378 53.2999 910.121 51.8026C878.025 46.7577 845.899 45.3485 813.57 47.3083C782.489 49.1516 751.976 53.8114 721.439 61.5101C717.089 62.6089 713.445 63.4268 704.356 65.9737C703.686 66.1877 703.731 66.2063 703.443 66.3153C616.399 97.5738 522.14 108.901 431.153 87.4637C427.324 86.6944 433.953 88.0837 426.505 86.5734C416.666 84.5509 408.009 82.6206 398.3 80.3187C365.238 72.4769 332.078 66.6069 297.339 62.4985C292.901 61.996 295.157 62.1003 282.157 60.7786C279.817 60.4946 260.144 58.7964 255.061 58.5255C254.372 58.4828 257.948 58.7609 251.629 58.3385C214.698 55.9074 175.877 55.7623 139.015 58.0202C133.01 58.3947 139.394 57.9456 135.13 58.2176C105.112 60.1399 72.4523 64.1117 44.2782 69.5679C25.413 73.3673 32.4363 71.8911 22.3526 74.1384C21.0712 74.386 9.36161 77.4541 8.80146 77.6257C7.24103 77.9524 12.8038 76.2781 10.4683 76.8112C9.93076 76.8343 -5.16779 81.5254 3.69762 78.7179C4.42854 78.4336 15.4287 75.3244 18.2852 74.6405C20.2443 74.1355 16.7546 74.9608 20.6574 73.9732C24.5517 73.002 28.8807 72.0139 35.529 70.5863C42.033 69.2383 39.1547 69.676 52.4012 67.2285ZM1772.73 139.819C1783.34 139.86 1784.9 139.711 1773.43 139.747C1772.88 139.748 1772.18 139.817 1772.73 139.819ZM489.527 139.843C503.393 139.909 512.88 139.812 503.099 139.761C493.32 139.71 485.303 139.823 489.527 139.843ZM345.75 139.891C361.955 139.943 364.505 139.731 347.15 139.774C346.14 139.776 344.803 139.888 345.75 139.891ZM68.9646 65.1131C68.7568 65.13 60.4388 66.4533 60.1633 66.5145C55.6745 67.2815 72.557 64.5817 68.9646 65.1131ZM203.075 139.944C208.133 139.972 222.7 139.939 216.414 139.904C211.354 139.875 196.775 139.908 203.075 139.944ZM2325.98 139.979C2326.14 139.981 2332.29 139.983 2332.17 139.971C2331.75 139.93 2323.2 139.942 2325.98 139.979ZM1.05391 99.5832C1.04593 135.41 0.870754 157.133 0.890521 118.117C0.894097 111.052 0.946383 133.345 0.962176 124.352C0.990948 107.897 0.88096 96.9712 0.939898 80.1796C0.950686 77.1398 1.05476 97.5395 1.05416 99.6468C1.05407 99.6256 1.05399 99.6044 1.05391 99.5832ZM1778.84 139.999C1779.05 140.001 1787.56 140.003 1787.77 140.001C1792.38 139.953 1775.23 139.95 1778.84 139.999ZM2675.07 130.236C2675.08 129.766 2675.08 110.014 2675.08 109.369C2675 99.0649 2674.99 139 2675.07 130.236ZM1205.59 140.109C1196.31 140.156 1185.2 140.162 1177.79 140.102C1187.02 140.105 1196.31 140.106 1205.59 140.109Z" fill="var(--stroke-0, white)"/>
</g>
</svg>
