<svg width="20" height="20" viewBox="0 0 20 20" fill="none" xmlns="http://www.w3.org/2000/svg">
<g clip-path="url(#clip0_2685_4397)">
<path d="M16.1161 6.54134C16.4686 6.18895 16.6666 5.71098 16.6667 5.21257C16.6668 4.71416 16.4688 4.23614 16.1165 3.88367C15.7641 3.5312 15.2861 3.33315 14.7877 3.33308C14.2893 3.33302 13.8113 3.53095 13.4588 3.88334L4.56145 12.7827C4.40667 12.937 4.29219 13.127 4.22812 13.336L3.34745 16.2373C3.33022 16.295 3.32892 16.3562 3.34369 16.4146C3.35845 16.4729 3.38873 16.5262 3.43132 16.5687C3.4739 16.6112 3.5272 16.6414 3.58556 16.6561C3.64392 16.6707 3.70516 16.6693 3.76279 16.652L6.66479 15.772C6.87357 15.7085 7.06357 15.5947 7.21812 15.4407L16.1161 6.54134Z" stroke="#8B6357" stroke-width="1.6" stroke-linecap="round" stroke-linejoin="round"/>
</g>
<defs>
<clipPath id="clip0_2685_4397">
<rect width="20" height="20" rx="10" fill="white"/>
</clipPath>
</defs>
</svg>
