<svg width="20" height="20" viewBox="0 0 20 20" fill="none" xmlns="http://www.w3.org/2000/svg">
<path d="M0 9.99663C0 4.47565 4.47565 0 9.99663 0C15.5176 0 19.9933 4.47565 19.9933 9.99663C19.9933 15.5176 15.5176 19.9933 9.99663 19.9933C4.47565 19.9933 0 15.5176 0 9.99663Z" fill="#DE6A07"/>
<g clip-path="url(#clip0_4880_26190)">
<path d="M15.7118 8.83041C15.9781 10.1374 15.7884 11.4962 15.1741 12.6802C14.5598 13.8641 13.5582 14.8018 12.3364 15.3367C11.1145 15.8715 9.74612 15.9714 8.45953 15.6195C7.17294 15.2676 6.04587 14.4853 5.26626 13.403C4.48666 12.3207 4.10165 11.0039 4.17544 9.6721C4.24923 8.34031 4.77736 7.07406 5.67176 6.08452C6.56616 5.09498 7.77276 4.44198 9.09035 4.23439C10.4079 4.02681 11.7569 4.2772 12.9122 4.9438" fill="#DE6A07"/>
<path d="M15.7118 8.83041C15.9781 10.1374 15.7884 11.4962 15.1741 12.6802C14.5598 13.8641 13.5582 14.8018 12.3364 15.3367C11.1145 15.8715 9.74612 15.9714 8.45953 15.6195C7.17294 15.2676 6.04587 14.4853 5.26626 13.403C4.48666 12.3207 4.10165 11.0039 4.17544 9.6721C4.24923 8.34031 4.77736 7.07406 5.67176 6.08452C6.56616 5.09498 7.77276 4.44198 9.09035 4.23439C10.4079 4.02681 11.7569 4.2772 12.9122 4.9438" stroke="#FEF3C7" stroke-width="1.16627" stroke-linecap="round" stroke-linejoin="round"/>
<path d="M8.24707 9.4135L9.99648 11.1629L15.8279 5.33154" stroke="#FEF3C7" stroke-width="1.16627" stroke-linecap="round" stroke-linejoin="round"/>
</g>
<defs>
<clipPath id="clip0_4880_26190">
<rect width="13.9953" height="13.9953" fill="white" transform="translate(2.99902 2.99902)"/>
</clipPath>
</defs>
</svg>
