<svg xmlns="http://www.w3.org/2000/svg" width="27" height="28" viewBox="0 0 27 28" fill="none">
  <path d="M26.6 15.9311C26.6 16.411 26.203 16.8 25.7133 16.8H24.4895C23.9998 16.8 23.6028 16.411 23.6028 15.9311V4.31448L17.6622 8.68534C17.2702 8.97377 16.7682 9.07782 16.2906 8.96962C15.9951 8.90266 14.8925 8.72334 13.4873 8.72334C12.0289 8.72334 10.8827 8.90355 10.5703 8.97216C10.1039 9.07438 9.61526 8.97511 9.22881 8.69964L2.99718 4.2576V15.9311C2.99718 16.411 2.60021 16.8 2.11052 16.8H0.886667C0.396975 16.8 0 16.411 0 15.9311V1.31365C0 0.248394 1.23323 -0.366996 2.11231 0.259592L10.609 6.31585C11.3169 6.21614 12.3321 6.1201 13.4873 6.1201C14.5902 6.1201 15.5626 6.21274 16.2514 6.31109L24.4715 0.263418C25.3482 -0.381592 26.6 0.231416 26.6 1.30575V15.9311Z" fill="currentColor"/>
  <path d="M2.20522 18.2C2.61488 18.2 2.94292 18.5381 2.97435 18.9532C3.09242 20.5122 3.60439 21.8188 4.74123 22.8092C6.11107 24.0026 8.65005 24.9712 13.2996 24.9843C17.9497 24.9713 20.4889 24.0027 21.8588 22.8092C22.9956 21.8188 23.5076 20.5122 23.6257 18.9532C23.6571 18.5381 23.9851 18.2 24.3948 18.2H25.8783C26.2879 18.2 26.6227 18.5376 26.5988 18.9532C26.4729 21.1412 25.7615 23.3803 23.7899 25.098C21.6592 26.9543 18.3092 27.9729 13.3953 27.9985L13.3945 27.9992L13.3938 28C13.3624 27.9999 13.3309 27.9997 13.2996 27.9996C13.2685 27.9997 13.2371 27.9999 13.2058 28L13.2051 27.9992L13.2044 27.9985C8.29057 27.9729 4.94079 26.9543 2.81007 25.098C0.838486 23.3803 0.127134 21.1412 0.00120685 18.9532C-0.0227105 18.5376 0.312056 18.2 0.721715 18.2H2.20522Z" fill="currentColor"/>
</svg>
