<svg width="15" height="17" viewBox="0 0 15 17" fill="none" xmlns="http://www.w3.org/2000/svg">
<path d="M3.52318 2.16667L4.18984 0.5L4.85651 2.16667C4.96762 2.38889 4.85651 2.83333 4.18984 2.83333C3.4668 2.83333 3.41207 2.38889 3.52318 2.16667Z" stroke="#8B6357" stroke-linejoin="round"/>
<path d="M6.84447 2.16667L7.51113 0.5L8.1778 2.16667C8.28891 2.38889 8.1778 2.83333 7.51113 2.83333C6.78809 2.83333 6.73336 2.38889 6.84447 2.16667Z" stroke="#8B6357" stroke-linejoin="round"/>
<path d="M10.178 2.16667L10.8446 0.5L11.5113 2.16667C11.6224 2.38889 11.5113 2.83333 10.8446 2.83333C10.1216 2.83333 10.0669 2.38889 10.178 2.16667Z" stroke="#8B6357" stroke-linejoin="round"/>
<path d="M0.800049 9.41667C0.800049 8.3121 1.69548 7.41667 2.80005 7.41667H12.1334C13.238 7.41667 14.1334 8.3121 14.1334 9.41667V16.0833H0.800049V9.41667Z" stroke="#8B6357" stroke-width="1.6" stroke-linejoin="round"/>
<rect x="3.4668" y="4.75" width="1.33333" height="2.66667" stroke="#8B6357" stroke-linejoin="round"/>
<rect x="6.80005" y="4.75" width="1.33333" height="2.66667" stroke="#8B6357" stroke-linejoin="round"/>
<rect x="10.1335" y="4.75" width="1.33333" height="2.66667" stroke="#8B6357" stroke-linejoin="round"/>
</svg>
