<svg xmlns="http://www.w3.org/2000/svg" width="12" height="12" viewBox="0 0 12 12" fill="none">
  <g clip-path="url(#clip0_4880_26490)">
    <path d="M10.897 4.99834C11.1252 6.11861 10.9626 7.28329 10.4361 8.29813C9.90955 9.31297 9.05104 10.1166 8.00371 10.5751C6.95637 11.0336 5.78351 11.1192 4.68072 10.8176C3.57792 10.516 2.61186 9.84541 1.94363 8.91773C1.27539 7.99006 0.945385 6.86133 1.00863 5.71979C1.07188 4.57825 1.52457 3.49289 2.2912 2.64472C3.05782 1.79655 4.09206 1.23682 5.22142 1.0589C6.35078 0.880967 7.50701 1.09559 8.49728 1.66696" stroke="currentColor" stroke-width="0.999663" stroke-linecap="round" stroke-linejoin="round"/>
    <path d="M4.49854 5.49815L5.99803 6.99765L10.9963 1.99933" stroke="currentColor" stroke-width="0.999663" stroke-linecap="round" stroke-linejoin="round"/>
  </g>
  <defs>
    <clipPath id="clip0_4880_26490">
      <rect width="11.996" height="11.996" fill="white"/>
    </clipPath>
  </defs>
</svg>