<svg preserveAspectRatio="none" width="100%" height="100%" overflow="visible" style="display: block;" viewBox="0 0 12 12" fill="none" xmlns="http://www.w3.org/2000/svg">
<g id="Group 5">
<path id="Ellipse 4 (Stroke)" fill-rule="evenodd" clip-rule="evenodd" d="M5.11406 8.81135C7.15607 8.81135 8.81145 7.15598 8.81145 5.11397C8.81145 3.07196 7.15607 1.41659 5.11406 1.41659C3.07205 1.41659 1.41668 3.07196 1.41668 5.11397C1.41668 7.15598 3.07205 8.81135 5.11406 8.81135ZM5.11406 10.228C7.93847 10.228 10.2281 7.93838 10.2281 5.11397C10.2281 2.28956 7.93847 -8.13603e-05 5.11406 -8.13603e-05C2.28965 -8.13603e-05 1.01924e-05 2.28956 1.01924e-05 5.11397C1.01924e-05 7.93838 2.28965 10.228 5.11406 10.228Z" fill="var(--fill-0, #4C4C4C)"/>
<path id="Vector 1 (Stroke)" fill-rule="evenodd" clip-rule="evenodd" d="M8.26609 8.266C7.98947 8.54262 7.98947 8.99111 8.26609 9.26773L10.3325 11.3341C10.6091 11.6107 11.0576 11.6107 11.3342 11.3341C11.6108 11.0575 11.6108 10.609 11.3342 10.3324L9.26782 8.266C8.9912 7.98937 8.54271 7.98937 8.26609 8.266Z" fill="var(--fill-0, #4C4C4C)"/>
</g>
</svg>
