<svg xmlns="http://www.w3.org/2000/svg" width="14" height="14" viewBox="0 0 14 14" fill="none">
  <g clip-path="url(#clip0_4880_26183)">
    <path d="M6.72047 1.33828C6.74602 1.28665 6.7855 1.24319 6.83444 1.21281C6.88339 1.18242 6.93985 1.16632 6.99746 1.16632C7.05507 1.16632 7.11153 1.18242 7.16047 1.21281C7.20942 1.24319 7.24889 1.28665 7.27445 1.33828L8.62149 4.06678C8.71023 4.24637 8.84123 4.40174 9.00323 4.51956C9.16523 4.63738 9.35341 4.71413 9.5516 4.74322L12.5641 5.18407C12.6212 5.19234 12.6748 5.21642 12.7189 5.25358C12.763 5.29074 12.7958 5.33951 12.8137 5.39436C12.8315 5.4492 12.8337 5.50795 12.8198 5.56395C12.806 5.61995 12.7768 5.67096 12.7355 5.71123L10.5569 7.83268C10.4133 7.97269 10.3058 8.14552 10.2437 8.33629C10.1816 8.52707 10.1668 8.73006 10.2006 8.92781L10.715 11.9251C10.725 11.9822 10.7189 12.0409 10.6972 12.0946C10.6755 12.1484 10.6391 12.1949 10.5922 12.2289C10.5454 12.263 10.4899 12.2832 10.4321 12.2872C10.3743 12.2912 10.3165 12.2789 10.2654 12.2517L7.57243 10.8358C7.39499 10.7427 7.19758 10.694 6.99717 10.694C6.79675 10.694 6.59934 10.7427 6.4219 10.8358L3.72956 12.2517C3.67844 12.2788 3.62074 12.2909 3.56304 12.2868C3.50535 12.2827 3.44995 12.2625 3.40317 12.2285C3.35639 12.1945 3.3201 12.148 3.29842 12.0944C3.27674 12.0407 3.27055 11.9821 3.28054 11.9251L3.79429 8.9284C3.82822 8.73056 3.81352 8.52743 3.75145 8.33654C3.68938 8.14565 3.5818 7.97272 3.43799 7.83268L1.25939 5.71181C1.21775 5.67159 1.18824 5.62049 1.17423 5.56432C1.16022 5.50815 1.16226 5.44918 1.18013 5.39411C1.198 5.33905 1.23097 5.29011 1.2753 5.25287C1.31962 5.21563 1.37351 5.19159 1.43083 5.18349L4.44274 4.74322C4.64115 4.71436 4.82958 4.63771 4.99181 4.51987C5.15403 4.40204 5.2852 4.24655 5.374 4.06678L6.72047 1.33828Z" fill="currentColor" stroke="currentColor" stroke-width="1.16627" stroke-linecap="round" stroke-linejoin="round"/>
  </g>
  <defs>
    <clipPath id="clip0_4880_26183">
      <rect width="13.9953" height="13.9953" fill="white"/>
    </clipPath>
  </defs>
</svg>
