<svg xmlns="http://www.w3.org/2000/svg" width="24" height="26" viewBox="0 0 24 26" fill="none">
  <path d="M4.09766 3.2195V0.878047C4.09766 0.393115 4.49077 0 4.9757 0C5.46064 0 5.85375 0.393115 5.85375 0.878047V3.2195C5.85375 3.70444 5.46064 4.09755 4.9757 4.09755C4.49077 4.09755 4.09766 3.70444 4.09766 3.2195ZM18.1464 3.2195V0.878047C18.1464 0.393115 18.5396 3.01699e-07 19.0245 0C19.5094 0 19.9025 0.393115 19.9025 0.878047V3.2195C19.9025 3.70444 19.5094 4.09755 19.0245 4.09755C18.5396 4.09755 18.1464 3.70444 18.1464 3.2195Z" fill="#4C4C4C"/>
  <path d="M7.32751 17.2682C7.97408 17.2682 8.49824 17.7924 8.49824 18.439C8.49824 19.0855 7.97408 19.6097 7.32751 19.6097H7.31722C6.67064 19.6097 6.14648 19.0855 6.14648 18.439C6.14648 17.7924 6.67064 17.2682 7.31722 17.2682H7.32751ZM12.0053 17.2682C12.6519 17.2682 13.176 17.7924 13.176 18.439C13.176 19.0855 12.6519 19.6097 12.0053 19.6097H11.995C11.3484 19.6097 10.8243 19.0855 10.8243 18.439C10.8243 17.7924 11.3484 17.2682 11.995 17.2682H12.0053ZM7.32751 12.5853L7.44755 12.5916C8.03783 12.6516 8.49824 13.1499 8.49824 13.7561C8.49824 14.3622 8.03783 14.8605 7.44755 14.9205L7.32751 14.9268H7.31722C6.67064 14.9268 6.14648 14.4026 6.14648 13.7561C6.14648 13.1095 6.67064 12.5853 7.31722 12.5853H7.32751ZM12.0053 12.5853C12.6519 12.5853 13.176 13.1095 13.176 13.7561C13.176 14.4026 12.6519 14.9268 12.0053 14.9268H11.995C11.3484 14.9268 10.8243 14.4026 10.8243 13.7561C10.8243 13.1095 11.3484 12.5853 11.995 12.5853H12.0053ZM16.6831 12.5853C17.3296 12.5853 17.8538 13.1095 17.8538 13.7561C17.8538 14.4026 17.3296 14.9268 16.6831 14.9268H16.6728C16.0262 14.9268 15.502 14.4026 15.502 13.7561C15.502 13.1095 16.0262 12.5853 16.6728 12.5853H16.6831Z" fill="#4C4C4C"/>
  <path d="M21.9514 7.02438C22.4363 7.02438 22.8294 7.4175 22.8294 7.90243C22.8294 8.38736 22.4363 8.78048 21.9514 8.78048H2.04895C1.56401 8.78048 1.1709 8.38736 1.1709 7.90243C1.1709 7.4175 1.56401 7.02438 2.04895 7.02438H21.9514Z" fill="#4C4C4C"/>
  <path d="M22.2439 12.87C22.2439 10.2965 22.2422 8.44809 22.0673 7.04154C21.8947 5.65367 21.5666 4.8298 21.0114 4.22962C20.4653 3.63928 19.73 3.29809 18.4779 3.11605C17.1928 2.92927 15.4984 2.92684 13.1124 2.92684H10.8876C8.5016 2.92684 6.8072 2.92927 5.5221 3.11605C4.26997 3.29809 3.53468 3.63928 2.98857 4.22962C2.4334 4.8298 2.10534 5.65367 1.93274 7.04154C1.75782 8.44809 1.7561 10.2965 1.7561 12.87V13.4714C1.7561 16.045 1.75782 17.8934 1.93274 19.2999C2.10534 20.6878 2.4334 21.5116 2.98857 22.1118C3.53468 22.7022 4.26997 23.0433 5.5221 23.2254C6.80719 23.4122 8.5016 23.4146 10.8876 23.4146H13.1124C15.4984 23.4146 17.1928 23.4122 18.4779 23.2254C19.73 23.0433 20.4653 22.7022 21.0114 22.1118C21.5666 21.5116 21.8947 20.6878 22.0673 19.2999C22.2422 17.8934 22.2439 16.045 22.2439 13.4714V12.87ZM24 13.4714C24 15.9989 24.0017 17.9764 23.8102 19.5166C23.6163 21.0755 23.2112 22.3197 22.3005 23.3043C21.3808 24.2985 20.2033 24.749 18.73 24.9632C17.2894 25.1726 15.4448 25.1707 13.1124 25.1707H10.8876C8.55523 25.1707 6.7106 25.1726 5.27001 24.9632C3.79669 24.749 2.61921 24.2985 1.6995 23.3043C0.78878 22.3197 0.38366 21.0755 0.189787 19.5166C-0.00174529 17.9764 5.22506e-07 15.9989 5.61665e-07 13.4714V12.87C5.22651e-07 10.3425 -0.00174522 8.36509 0.189787 6.82489C0.38366 5.26596 0.78878 4.02173 1.6995 3.03717C2.61921 2.04297 3.79669 1.5924 5.27001 1.37825C6.7106 1.16889 8.55523 1.17075 10.8876 1.17075H13.1124C15.4448 1.17075 17.2894 1.16889 18.73 1.37825C20.2033 1.5924 21.3808 2.04297 22.3005 3.03717C23.2112 4.02173 23.6163 5.26596 23.8102 6.82489C24.0017 8.36509 24 10.3425 24 12.87V13.4714Z" fill="#4C4C4C"/>
  <path d="M22.5362 7.02438C23.0211 7.02438 23.4142 7.4175 23.4142 7.90243C23.4142 8.38736 23.0211 8.78048 22.5362 8.78048H1.46301C0.978077 8.78048 0.584961 8.38736 0.584961 7.90243C0.584961 7.4175 0.978077 7.02438 1.46301 7.02438H22.5362Z" fill="#4C4C4C"/>
</svg>