<svg width="24" height="24" viewBox="0 0 24 24" fill="none" xmlns="http://www.w3.org/2000/svg">
<g clip-path="url(#clip0_1460_14707)">
<path d="M12 18V20.25" stroke="#8B6357" stroke-width="1.6" stroke-linecap="round" stroke-linejoin="round"/>
<path d="M8.625 14.25C9.24632 14.25 9.75 13.7463 9.75 13.125C9.75 12.5037 9.24632 12 8.625 12C8.00368 12 7.5 12.5037 7.5 13.125C7.5 13.7463 8.00368 14.25 8.625 14.25Z" fill="#8B6357"/>
<path d="M15.375 14.25C15.9963 14.25 16.5 13.7463 16.5 13.125C16.5 12.5037 15.9963 12 15.375 12C14.7537 12 14.25 12.5037 14.25 13.125C14.25 13.7463 14.7537 14.25 15.375 14.25Z" fill="#8B6357"/>
<path d="M13.5 16.5L12 18L10.5 16.5" stroke="#8B6357" stroke-width="1.6" stroke-linecap="round" stroke-linejoin="round"/>
<path d="M14.25 4.49989L19.4813 3.19677C19.5799 3.17194 19.6825 3.16743 19.7829 3.1835C19.8833 3.19957 19.9794 3.2359 20.0653 3.29026C20.1513 3.34463 20.2253 3.4159 20.2828 3.49975C20.3403 3.5836 20.3802 3.67828 20.4 3.77802L21.9375 11.9905C22.0781 12.7593 21.0938 13.2093 20.6063 12.5905L14.25 4.49989Z" stroke="#8B6357" stroke-width="1.6" stroke-linecap="round" stroke-linejoin="round"/>
<path d="M9.75 4.49989L4.51875 3.19677C4.42014 3.17194 4.31751 3.16743 4.2171 3.1835C4.11669 3.19957 4.02059 3.2359 3.93466 3.29026C3.84872 3.34463 3.77474 3.4159 3.71721 3.49975C3.65968 3.5836 3.6198 3.67828 3.6 3.77802L2.0625 11.9905C1.92187 12.7593 2.90625 13.2093 3.39375 12.5905L9.75 4.49989Z" stroke="#8B6357" stroke-width="1.6" stroke-linecap="round" stroke-linejoin="round"/>
<path d="M9.75 4.5H14.25" stroke="#8B6357" stroke-width="1.6" stroke-linecap="round" stroke-linejoin="round"/>
<path d="M19.5 11.1843V17.25C19.5 18.0456 19.1839 18.8087 18.6213 19.3713C18.0587 19.9339 17.2956 20.25 16.5 20.25H7.5C6.70435 20.25 5.94129 19.9339 5.37868 19.3713C4.81607 18.8087 4.5 18.0456 4.5 17.25V11.1843" stroke="#8B6357" stroke-width="1.6" stroke-linecap="round" stroke-linejoin="round"/>
</g>
<defs>
<clipPath id="clip0_1460_14707">
<rect width="24" height="24" rx="12" fill="white"/>
</clipPath>
</defs>
</svg>