<svg preserveAspectRatio="none" width="100%" height="100%" overflow="visible" style="display: block;" viewBox="0 0 28 28" fill="none" xmlns="http://www.w3.org/2000/svg">
<g id="Icon">
<path id="Vector" d="M4.5 21.9V19.5H6.875V11.1C6.875 9.44 7.36979 7.97 8.35937 6.69C9.34896 5.39 10.6354 4.54 12.2187 4.14V3.3C12.2187 2.8 12.387 2.38 12.7234 2.04C13.0797 1.68 13.5052 1.5 14 1.5C14.4948 1.5 14.9104 1.68 15.2469 2.04C15.6032 2.38 15.7812 2.8 15.7812 3.3V4.14C17.3646 4.54 18.6511 5.39 19.6406 6.69C20.6302 7.97 21.125 9.44 21.125 11.1V19.5H23.5V21.9H4.5ZM14 25.5C13.3469 25.5 12.7828 25.27 12.3078 24.81C11.8526 24.33 11.625 23.76 11.625 23.1H16.375C16.375 23.76 16.1375 24.33 15.6625 24.81C15.2073 25.27 14.6531 25.5 14 25.5ZM9.25 19.5H18.75V11.1C18.75 9.78 18.2849 8.65 17.3547 7.71C16.4245 6.77 15.3062 6.3 14 6.3C12.6937 6.3 11.5755 6.77 10.6453 7.71C9.71511 8.65 9.25 9.78 9.25 11.1V19.5Z" fill="var(--fill-0, #9CA3AF)"/>
</g>
</svg>
