<svg width="24" height="24" viewBox="0 0 24 24" fill="none" xmlns="http://www.w3.org/2000/svg">
<g clip-path="url(#clip0_1460_14678)">
<path d="M12 17V19.8336" stroke="#8B6357" stroke-width="1.6" stroke-linecap="round" stroke-linejoin="round"/>
<path d="M8.10378 13.6242C8.69064 13.6242 9.16638 13.1485 9.16638 12.5616C9.16638 11.9748 8.69064 11.499 8.10378 11.499C7.51691 11.499 7.04117 11.9748 7.04117 12.5616C7.04117 13.1485 7.51691 13.6242 8.10378 13.6242Z" fill="#8B6357"/>
<path d="M15.8962 13.6242C16.4831 13.6242 16.9588 13.1485 16.9588 12.5616C16.9588 11.9748 16.4831 11.499 15.8962 11.499C15.3094 11.499 14.8336 11.9748 14.8336 12.5616C14.8336 13.1485 15.3094 13.6242 15.8962 13.6242Z" fill="#8B6357"/>
<path d="M12 4.95797V8.5" stroke="#8B6357" stroke-width="1.6" stroke-linecap="round" stroke-linejoin="round"/>
<path d="M13.4168 15.7495L12 17.1663L10.5832 15.7495" stroke="#8B6357" stroke-width="1.6" stroke-linecap="round" stroke-linejoin="round"/>
<path d="M9.16641 5V8.09927" stroke="#8B6357" stroke-width="1.6" stroke-linecap="round" stroke-linejoin="round"/>
<path d="M14.8336 5V8.09927" stroke="#8B6357" stroke-width="1.6" stroke-linecap="round" stroke-linejoin="round"/>
<path d="M3.49915 12.2075V4.70722C3.49938 4.56675 3.54137 4.42952 3.61978 4.31297C3.69819 4.19642 3.80948 4.10582 3.93951 4.05267C4.06954 3.99952 4.21243 3.98622 4.35003 4.01448C4.48763 4.04273 4.61373 4.11125 4.71229 4.21134L6.65155 6.1506C8.20082 5.01095 10.0768 4.4022 12 4.415C13.9233 4.4022 15.7992 5.01095 17.3485 6.1506L19.2877 4.21134C19.3863 4.11125 19.5124 4.04273 19.65 4.01448C19.7876 3.98622 19.9305 3.99952 20.0605 4.05267C20.1905 4.10582 20.3018 4.19642 20.3802 4.31297C20.4586 4.42952 20.5006 4.56675 20.5009 4.70722V12.2075C20.5009 16.511 16.6932 19.9999 12 19.9999C7.30682 19.9999 3.49915 16.511 3.49915 12.2075Z" stroke="#8B6357" stroke-width="1.4" stroke-linecap="round" stroke-linejoin="round"/>
</g>
<defs>
<clipPath id="clip0_1460_14678">
<rect width="24" height="24" rx="12" fill="white"/>
</clipPath>
</defs>
</svg>