<svg width="20" height="20" viewBox="0 0 20 20" fill="none" xmlns="http://www.w3.org/2000/svg">
<g clip-path="url(#clip0_2597_5358)">
<path d="M2.61292 6.06592C2.93228 6.09257 3.23637 6.23561 3.45569 6.48584C3.66907 6.72938 3.84323 7.12166 3.81897 7.71924C3.77713 8.74405 3.14014 9.15923 2.55823 9.17822C1.97119 9.19722 1.32155 8.81976 1.22424 7.83838V7.8374L1.21643 7.61963C1.21643 7.53618 1.21916 7.45272 1.22424 7.40186V7.40088C1.27811 6.8573 1.49367 6.52494 1.7301 6.33154C1.97521 6.13112 2.29259 6.03921 2.61292 6.06592Z" stroke="#8B6357" stroke-width="1.6"/>
<path d="M17.4435 6.06018C18.0294 6.04212 18.678 6.42087 18.7755 7.401V7.40198C18.7806 7.45289 18.7833 7.53631 18.7833 7.61975L18.7755 7.83752C18.7215 8.38237 18.506 8.71481 18.2697 8.90784C18.0245 9.10792 17.7068 9.19965 17.3859 9.17249C17.0659 9.14532 16.7612 9.00184 16.5421 8.75159C16.3291 8.50814 16.1564 8.117 16.1818 7.52209C16.2259 6.49113 16.8641 6.07808 17.4435 6.06018Z" stroke="#8B6357" stroke-width="1.6"/>
<path d="M9.67676 7.23894C11.2409 7.12527 12.696 7.88338 13.8838 9.13737C15.0728 10.3926 15.9151 12.0695 16.2354 13.5778C16.4524 14.5999 16.3803 15.5257 16.0469 16.2009C15.733 16.8363 15.1497 17.3331 14.1162 17.487C13.3503 17.6011 12.8346 17.3145 12.0166 16.9147C11.203 16.5171 10.1767 16.0817 8.75586 16.5768C8.31693 16.7298 7.95907 16.903 7.65918 17.0544C7.34547 17.2127 7.13289 17.3256 6.91113 17.4098C6.55097 17.5465 6.15369 17.6151 5.37402 17.3669C4.39241 17.0541 3.92678 16.4286 3.73926 15.6501C3.56402 14.9222 3.63318 14.0378 3.87109 13.1579L3.98242 12.7819C4.39721 11.5049 5.15612 10.1456 6.16113 9.0905C7.16635 8.03526 8.3674 7.33404 9.67676 7.23894Z" stroke="#8B6357" stroke-width="1.6"/>
<path d="M7.16394 2.47722C7.62443 2.42557 7.92822 2.57447 8.14148 2.80339C8.37656 3.05589 8.53985 3.45352 8.57214 3.91081C8.60426 4.3669 8.49997 4.80288 8.29773 5.11296C8.13278 5.36561 7.89811 5.54812 7.56238 5.61198L7.41199 5.63152C6.97121 5.66661 6.67425 5.51624 6.46277 5.28386C6.23196 5.03013 6.07222 4.63895 6.03992 4.19206C6.0077 3.74588 6.1082 3.31791 6.30457 3.00945C6.48852 2.7206 6.76123 2.52253 7.16394 2.47722Z" stroke="#8B6357" stroke-width="1.6"/>
<path d="M12.5488 2.47722C13.0092 2.42566 13.3122 2.57451 13.5254 2.80339C13.7605 3.05589 13.9247 3.45345 13.957 3.91081C13.9891 4.36693 13.8839 4.80289 13.6816 5.11296C13.4931 5.40174 13.2136 5.59825 12.7959 5.63152C12.3689 5.66547 12.0761 5.51788 11.8643 5.28386C11.6334 5.02865 11.4727 4.6358 11.4385 4.18816C11.4043 3.74078 11.5027 3.31349 11.6963 3.00652C11.8772 2.71975 12.1464 2.52236 12.5488 2.47722Z" stroke="#8B6357" stroke-width="1.6"/>
</g>
<defs>
<clipPath id="clip0_2597_5358">
<rect width="20" height="20" rx="10" fill="white"/>
</clipPath>
</defs>
</svg>
