<svg xmlns="http://www.w3.org/2000/svg" width="13" height="12" viewBox="0 0 13 12" fill="none">
  <path d="M5.33124 0.499999C5.71614 -0.166667 6.67839 -0.166667 7.06329 0.5L12.2594 9.5C12.6443 10.1667 12.1632 11 11.3934 11H1.00111C0.231312 11 -0.249812 10.1667 0.135088 9.5L5.33124 0.499999Z" fill="#E8B600"/>
  <path d="M6.30727 8.21005C6.19393 8.21005 6.09393 8.16672 6.00727 8.08005C5.92727 7.99339 5.88727 7.89339 5.88727 7.78005V2.62005C5.88727 2.49339 5.92727 2.39005 6.00727 2.31005C6.09393 2.22339 6.19393 2.18005 6.30727 2.18005C6.43393 2.18005 6.53727 2.22339 6.61727 2.31005C6.69727 2.39005 6.73727 2.49339 6.73727 2.62005V7.78005C6.73727 7.89339 6.69393 7.99339 6.60727 8.08005C6.5206 8.16672 6.4206 8.21005 6.30727 8.21005ZM6.30727 10.0001C6.1406 10.0001 5.99727 9.94005 5.87727 9.82005C5.75727 9.70005 5.69727 9.55672 5.69727 9.39005C5.69727 9.21005 5.75727 9.06005 5.87727 8.94005C5.99727 8.82005 6.1406 8.76005 6.30727 8.76005C6.4806 8.76005 6.62727 8.82339 6.74727 8.95005C6.86727 9.07005 6.92727 9.21672 6.92727 9.39005C6.92727 9.55672 6.86727 9.70005 6.74727 9.82005C6.62727 9.94005 6.4806 10.0001 6.30727 10.0001Z" fill="url(#paint0_linear_1879_2774)"/>
  <defs>
    <linearGradient id="paint0_linear_1879_2774" x1="5.69727" y1="2.18005" x2="8.09788" y2="2.55764" gradientUnits="userSpaceOnUse">
      <stop stop-color="#FFF7ED"/>
      <stop offset="1" stop-color="#FFFBEB"/>
    </linearGradient>
  </defs>
</svg>