<svg preserveAspectRatio="none" width="100%" height="100%" overflow="visible" style="display: block;" viewBox="0 0 2 8" fill="none" xmlns="http://www.w3.org/2000/svg">
<path id="!" d="M0.61 6.03C0.496667 6.03 0.396667 5.98667 0.31 5.9C0.23 5.81333 0.19 5.71333 0.19 5.6V0.44C0.19 0.313334 0.23 0.21 0.31 0.13C0.396667 0.0433334 0.496667 0 0.61 0C0.736667 0 0.84 0.0433334 0.92 0.13C1 0.21 1.04 0.313334 1.04 0.44V5.6C1.04 5.71333 0.996667 5.81333 0.91 5.9C0.823333 5.98667 0.723333 6.03 0.61 6.03ZM0.61 7.82C0.443333 7.82 0.3 7.76 0.18 7.64C0.06 7.52 0 7.37667 0 7.21C0 7.03 0.06 6.88 0.18 6.76C0.3 6.64 0.443333 6.58 0.61 6.58C0.783333 6.58 0.93 6.64333 1.05 6.77C1.17 6.89 1.23 7.03667 1.23 7.21C1.23 7.37667 1.17 7.52 1.05 7.64C0.93 7.76 0.783333 7.82 0.61 7.82Z" fill="url(#paint0_linear_0_20)"/>
<defs>
<linearGradient id="paint0_linear_0_20" x1="0" y1="0" x2="2.40061" y2="0.377589" gradientUnits="userSpaceOnUse">
<stop stop-color="#FFF7ED"/>
<stop offset="1" stop-color="#FFFBEB"/>
</linearGradient>
</defs>
</svg>
