<svg width="16" height="16" viewBox="0 0 16 16" fill="none" xmlns="http://www.w3.org/2000/svg">
<path d="M9.22125 11.0453C9.35894 11.1086 9.51405 11.123 9.66105 11.0863C9.80804 11.0496 9.93814 10.9639 10.0299 10.8433L10.2666 10.5333C10.3908 10.3677 10.5518 10.2333 10.737 10.1408C10.9221 10.0482 11.1263 10 11.3333 10H13.3333C13.6869 10 14.026 10.1405 14.2761 10.3905C14.5261 10.6406 14.6666 10.9797 14.6666 11.3333V13.3333C14.6666 13.687 14.5261 14.0261 14.2761 14.2762C14.026 14.5262 13.6869 14.6667 13.3333 14.6667C10.1507 14.6667 7.09841 13.4024 4.84797 11.152C2.59753 8.90152 1.33325 5.84927 1.33325 2.66668C1.33325 2.31305 1.47373 1.97392 1.72378 1.72387C1.97382 1.47382 2.31296 1.33334 2.66659 1.33334H4.66659C5.02021 1.33334 5.35935 1.47382 5.60939 1.72387C5.85944 1.97392 5.99992 2.31305 5.99992 2.66668V4.66668C5.99992 4.87367 5.95173 5.07782 5.85915 5.26296C5.76658 5.4481 5.63218 5.60915 5.46658 5.73334L5.15458 5.96734C5.0322 6.06079 4.94593 6.19373 4.91045 6.34358C4.87496 6.49342 4.89244 6.65093 4.95992 6.78934C5.87104 8.63992 7.36953 10.1365 9.22125 11.0453Z" stroke="#8B6357" stroke-width="1.6" stroke-linecap="round" stroke-linejoin="round"/>
</svg>
