<svg width="48" height="48" viewBox="0 0 48 48" fill="none" xmlns="http://www.w3.org/2000/svg">
<path d="M24 1.99988C19.6488 1.99988 15.3953 3.29016 11.7775 5.70755C8.15958 8.12494 5.33979 11.5609 3.67466 15.5808C2.00953 19.6008 1.57386 24.0243 2.42273 28.2919C3.27161 32.5594 5.36691 36.4795 8.44366 39.5562C11.5204 42.633 15.4404 44.7283 19.708 45.5772C23.9756 46.426 28.3991 45.9904 32.419 44.3252C36.439 42.6601 39.875 39.8403 42.2923 36.2224C44.7097 32.6045 46 28.3511 46 23.9999C45.9931 18.1672 43.6731 12.5754 39.5488 8.45113C35.4244 4.32682 29.8327 2.00676 24 1.99988ZM34 25.9999H26V33.9999C26 34.5303 25.7893 35.039 25.4142 35.4141C25.0391 35.7892 24.5304 35.9999 24 35.9999C23.4696 35.9999 22.9609 35.7892 22.5858 35.4141C22.2107 35.039 22 34.5303 22 33.9999V25.9999H14C13.4696 25.9999 12.9609 25.7892 12.5858 25.4141C12.2107 25.039 12 24.5303 12 23.9999C12 23.4694 12.2107 22.9607 12.5858 22.5857C12.9609 22.2106 13.4696 21.9999 14 21.9999H22V13.9999C22 13.4694 22.2107 12.9607 22.5858 12.5857C22.9609 12.2106 23.4696 11.9999 24 11.9999C24.5304 11.9999 25.0391 12.2106 25.4142 12.5857C25.7893 12.9607 26 13.4694 26 13.9999V21.9999H34C34.5304 21.9999 35.0392 22.2106 35.4142 22.5857C35.7893 22.9607 36 23.4694 36 23.9999C36 24.5303 35.7893 25.039 35.4142 25.4141C35.0392 25.7892 34.5304 25.9999 34 25.9999Z" fill="#A3A3A3"/>
</svg>
