<svg preserveAspectRatio="none" width="100%" height="100%" overflow="visible" style="display: block;" viewBox="0 0 14 14" fill="none" xmlns="http://www.w3.org/2000/svg">
<g id="AuthDialog" clip-path="url(#clip0_0_57)">
<path id="Vector" d="M14 7.04258C14 3.17683 10.8657 0.0425836 7 0.0425836C3.13425 0.0425836 2.38419e-07 3.17683 2.38419e-07 7.04258C2.38419e-07 10.5367 2.55967 13.4324 5.90625 13.9574V9.06617H4.12883V7.042H5.90625V5.50083C5.90625 3.74675 6.95158 2.77725 8.5505 2.77725C9.31583 2.77725 10.1173 2.91433 10.1173 2.91433V4.63692H9.23417C8.36442 4.63692 8.09317 5.1765 8.09317 5.73008V7.04258H10.0345L9.72417 9.06675H8.09317V13.958C11.4403 13.4324 14 10.5362 14 7.04258Z" fill="var(--fill-0, #1877F2)"/>
</g>
<defs>
<clipPath id="clip0_0_57">
<rect width="14" height="14" fill="white"/>
</clipPath>
</defs>
</svg>
