<svg preserveAspectRatio="none" width="100%" height="100%" overflow="visible" style="display: block;" viewBox="0 0 32 32" fill="none" xmlns="http://www.w3.org/2000/svg">
<g id="Icon">
<path id="Vector" d="M14.6667 13.3333L18.6667 17.3333" stroke="var(--stroke-0, #DE6A07)" stroke-width="2.66667" stroke-linecap="round" stroke-linejoin="round"/>
<path id="Vector_2" d="M8.66667 28C9.58965 28 10.4919 27.7263 11.2593 27.2135C12.0268 26.7007 12.6249 25.9719 12.9781 25.1192C13.3313 24.2665 13.4237 23.3282 13.2437 22.4229C13.0636 21.5177 12.6191 20.6861 11.9665 20.0335C11.3139 19.3809 10.4823 18.9364 9.57709 18.7563C8.67184 18.5763 7.73353 18.6687 6.88081 19.0219C6.02809 19.3751 5.29925 19.9732 4.78647 20.7407C4.27369 21.5081 4 22.4104 4 23.3333C4.00025 24.2208 3.66273 25.075 3.056 25.7227C2.86905 25.9091 2.74168 26.1469 2.69003 26.4059C2.63839 26.6648 2.66479 26.9333 2.76591 27.1772C2.86702 27.4212 3.03829 27.6296 3.25799 27.7761C3.4777 27.9225 3.73594 28.0005 4 28H8.66667Z" stroke="var(--stroke-0, #DE6A07)" stroke-width="2.66667" stroke-linecap="round" stroke-linejoin="round"/>
<path id="Vector_3" d="M13.292 22.708L28.504 7.49867C29.0348 6.96788 29.333 6.24798 29.333 5.49733C29.333 4.74669 29.0348 4.02679 28.504 3.496C27.9732 2.96521 27.2533 2.66702 26.5027 2.66702C25.752 2.66702 25.0321 2.96521 24.5013 3.496L9.28933 18.708" stroke="var(--stroke-0, #DE6A07)" stroke-width="2.66667" stroke-linecap="round" stroke-linejoin="round"/>
</g>
</svg>
