<svg preserveAspectRatio="none" width="100%" height="100%" overflow="visible" style="display: block;" viewBox="0 0 24 24" fill="none" xmlns="http://www.w3.org/2000/svg">
<g id="Line Duotone / Shopping, Ecommerce / Shop">
<path id="Vector" d="M9.5 2H14.5L15.1517 8.51737C15.3382 10.382 13.8739 12 12 12C10.1261 12 8.6618 10.382 8.84826 8.51737L9.5 2Z" stroke="currentColor" stroke-width="1.6"/>
<path id="Vector_2" d="M3.32974 5.35133C3.50781 4.46093 3.59685 4.01573 3.77789 3.65484C4.15937 2.89439 4.84577 2.33168 5.66626 2.10675C6.05565 2 6.50967 2 7.41769 2H9.5L8.77547 9.24527C8.61909 10.8091 7.30316 12 5.73153 12C3.80108 12 2.35322 10.2339 2.73181 8.34093L3.32974 5.35133Z" stroke="currentColor" stroke-width="1.6"/>
<path id="Vector_3" d="M20.6703 5.35133C20.4922 4.46093 20.4031 4.01573 20.2221 3.65484C19.8406 2.89439 19.1542 2.33168 18.3337 2.10675C17.9443 2 17.4903 2 16.5823 2H14.5L15.2245 9.24527C15.3809 10.8091 16.6968 12 18.2685 12C20.1989 12 21.6468 10.2339 21.2682 8.34093L20.6703 5.35133Z" stroke="currentColor" stroke-width="1.6"/>
<path id="Vector_4" d="M8.7 21.5C8.7 21.9418 9.05817 22.3 9.5 22.3C9.94183 22.3 10.3 21.9418 10.3 21.5H9.5H8.7ZM13.7 21.5C13.7 21.9418 14.0582 22.3 14.5 22.3C14.9418 22.3 15.3 21.9418 15.3 21.5H14.5H13.7ZM13.75 16.201L14.15 15.5081L14.15 15.5081L13.75 16.201ZM14.299 16.75L13.6062 17.15L13.6062 17.15L14.299 16.75ZM9.70096 16.75L10.3938 17.15L10.3938 17.15L9.70096 16.75ZM10.25 16.201L10.65 16.8938L10.65 16.8938L10.25 16.201ZM12.5 22V21.2H11.5V22V22.8H12.5V22ZM3.5 14H4.3V11H3.5H2.7V14H3.5ZM20.5 11H19.7V14H20.5H21.3V11H20.5ZM11.5 22V21.2C9.59177 21.2 8.24107 21.1983 7.21751 21.0607C6.21697 20.9262 5.64963 20.6751 5.23726 20.2627L4.67157 20.8284L4.10589 21.3941C4.86509 22.1533 5.82635 22.488 7.00431 22.6464C8.15927 22.8017 9.637 22.8 11.5 22.8V22ZM3.5 14H2.7C2.7 15.863 2.6983 17.3407 2.85358 18.4957C3.01195 19.6737 3.34669 20.6349 4.10589 21.3941L4.67157 20.8284L5.23726 20.2627C4.82489 19.8504 4.57383 19.283 4.43931 18.2825C4.3017 17.2589 4.3 15.9082 4.3 14H3.5ZM12.5 22V22.8C14.363 22.8 15.8407 22.8017 16.9957 22.6464C18.1737 22.488 19.1349 22.1533 19.8941 21.3941L19.3284 20.8284L18.7627 20.2627C18.3504 20.6751 17.783 20.9262 16.7825 21.0607C15.7589 21.1983 14.4082 21.2 12.5 21.2V22ZM20.5 14H19.7C19.7 15.9082 19.6983 17.2589 19.5607 18.2825C19.4262 19.283 19.1751 19.8504 18.7627 20.2627L19.3284 20.8284L19.8941 21.3941C20.6533 20.6349 20.988 19.6737 21.1464 18.4957C21.3017 17.3407 21.3 15.863 21.3 14H20.5ZM9.5 21.5H10.3V18.5H9.5H8.7V21.5H9.5ZM14.5 18.5H13.7V21.5H14.5H15.3V18.5H14.5ZM12 16V16.8C12.482 16.8 12.7901 16.8008 13.0227 16.8219C13.2444 16.8419 13.318 16.8753 13.35 16.8938L13.75 16.201L14.15 15.5081C13.8339 15.3256 13.4998 15.2585 13.1672 15.2284C12.8455 15.1992 12.4526 15.2 12 15.2V16ZM14.5 18.5H15.3C15.3 18.0474 15.3008 17.6545 15.2716 17.3328C15.2415 17.0002 15.1744 16.6661 14.9919 16.35L14.299 16.75L13.6062 17.15C13.6247 17.182 13.6581 17.2556 13.6781 17.4773C13.6992 17.7099 13.7 18.018 13.7 18.5H14.5ZM13.75 16.201L13.35 16.8938C13.4564 16.9552 13.5448 17.0436 13.6062 17.15L14.299 16.75L14.9919 16.35C14.79 16.0004 14.4996 15.71 14.15 15.5081L13.75 16.201ZM9.5 18.5H10.3C10.3 18.018 10.3008 17.7099 10.3219 17.4773C10.3419 17.2556 10.3753 17.182 10.3938 17.15L9.70096 16.75L9.00814 16.35C8.82565 16.6661 8.75854 17.0002 8.72839 17.3328C8.69923 17.6545 8.7 18.0474 8.7 18.5H9.5ZM12 16V15.2C11.5474 15.2 11.1545 15.1992 10.8328 15.2284C10.5002 15.2585 10.1661 15.3256 9.85 15.5081L10.25 16.201L10.65 16.8938C10.682 16.8753 10.7556 16.8419 10.9773 16.8219C11.2099 16.8008 11.518 16.8 12 16.8V16ZM9.70096 16.75L10.3938 17.15C10.4552 17.0436 10.5436 16.9552 10.65 16.8938L10.25 16.201L9.85 15.5081C9.50036 15.71 9.21001 16.0004 9.00814 16.35L9.70096 16.75Z" fill="currentColor"/>
</g>
</svg>
