<svg xmlns="http://www.w3.org/2000/svg" width="24" height="24" viewBox="0 0 24 24" fill="none">
  <path d="M3.14941 7.11914C3.57138 7.15445 3.97551 7.34439 4.26758 7.67773C4.55375 8.00439 4.77276 8.51649 4.74219 9.26953C4.68855 10.584 3.85577 11.1485 3.07422 11.1738C2.28776 11.1991 1.43483 10.6852 1.30957 9.42188V9.4209L1.2998 9.14355C1.2998 9.03807 1.30294 8.93254 1.30957 8.86621V8.86523C1.378 8.17478 1.65492 7.73512 1.97461 7.47363C2.30299 7.20512 2.7264 7.08384 3.14941 7.11914Z" stroke="#8B6357" stroke-width="1.6"/>
  <path d="M20.9275 7.11206C21.6636 7.08948 22.458 7.54138 22.658 8.63745L22.6902 8.86597C22.7035 8.99859 22.7035 9.28804 22.6902 9.42065V9.42163C22.6215 10.1136 22.3449 10.5532 22.0251 10.8142C21.6966 11.0823 21.273 11.2026 20.8494 11.1667C20.4267 11.1309 20.0221 10.9405 19.7302 10.6072C19.4444 10.2806 19.2255 9.76953 19.2576 9.01929C19.3142 7.69824 20.1487 7.13612 20.9275 7.11206Z" stroke="#8B6357" stroke-width="1.6"/>
  <path d="M11.6005 8.52734C13.5404 8.38635 15.3309 9.32759 16.7772 10.8545C18.2248 12.3827 19.2484 14.4224 19.6385 16.2607C19.9039 17.5101 19.8211 18.6596 19.4003 19.5117C18.9989 20.3243 18.252 20.9506 16.9628 21.1426V21.1436C15.9854 21.2891 15.32 20.9157 14.3495 20.4414C13.3834 19.9693 12.2021 19.4705 10.5594 20.043C10.0429 20.223 9.62157 20.4277 9.26355 20.6084C8.89168 20.7961 8.62656 20.9362 8.35046 21.041C7.88157 21.219 7.36754 21.3012 6.40027 20.9932C5.16473 20.5996 4.568 19.8024 4.33093 18.8184C4.08108 17.781 4.23163 16.5051 4.62683 15.2891C5.13121 13.7362 6.05308 12.083 7.27722 10.7979C8.50155 9.51262 9.9779 8.64521 11.6005 8.52734Z" stroke="#8B6357" stroke-width="1.6"/>
  <path d="M8.57898 2.81348C9.18222 2.74582 9.59637 2.94334 9.8866 3.25488C10.1986 3.58991 10.4063 4.10348 10.4471 4.68066C10.4879 5.25716 10.356 5.81736 10.0907 6.22363C9.83943 6.60847 9.46143 6.87382 8.9071 6.91797C8.32781 6.96408 7.92395 6.76292 7.63757 6.44824C7.33177 6.11222 7.12957 5.60673 7.08875 5.04199C7.04802 4.47808 7.17354 3.9291 7.43054 3.52539C7.67513 3.14132 8.04376 2.87366 8.57898 2.81348Z" stroke="#8B6357" stroke-width="1.6"/>
  <path d="M15.0404 2.81348C15.6436 2.74583 16.0568 2.94342 16.347 3.25488C16.6591 3.5899 16.8667 4.10343 16.9076 4.68066C16.9483 5.25716 16.8164 5.81736 16.5511 6.22363C16.3 6.60823 15.9225 6.87372 15.3685 6.91797C14.8048 6.96287 14.405 6.76464 14.1185 6.44824C13.8131 6.11065 13.61 5.60262 13.5668 5.03711C13.5237 4.47225 13.6463 3.92452 13.8998 3.52246C14.1407 3.14045 14.5054 2.8735 15.0404 2.81348Z" stroke="#8B6357" stroke-width="1.6"/>
</svg>