<svg preserveAspectRatio="none" width="100%" height="100%" overflow="visible" style="display: block;" viewBox="0 0 26 20" fill="none" xmlns="http://www.w3.org/2000/svg">
<g id="Van">
<path id="Vector" d="M21.5853 15.5308H24.0071L24.782 12.4551C25.0727 11.2938 25.0727 10.0793 24.782 8.91927L23.4864 3.74874C23.2894 2.96341 22.8356 2.2664 22.1972 1.7684C21.5588 1.2704 20.7723 0.999954 19.9627 1H3.4218C2.7795 1 2.1635 1.25515 1.70933 1.70933C1.25515 2.1635 1 2.7795 1 3.4218V15.5308H3.4218" stroke="currentColor" stroke-width="1.6" stroke-linecap="round" stroke-linejoin="round"/>
<path id="Vector_2" d="M15.5308 15.5308H9.47628" stroke="currentColor" stroke-width="1.6" stroke-linecap="round" stroke-linejoin="round"/>
<path id="Vector_3" d="M6.44903 19.1635C8.12093 19.1635 9.47627 17.8082 9.47627 16.1363C9.47627 14.4644 8.12093 13.109 6.44903 13.109C4.77713 13.109 3.42178 14.4644 3.42178 16.1363C3.42178 17.8082 4.77713 19.1635 6.44903 19.1635Z" stroke="currentColor" stroke-width="1.6" stroke-linecap="round" stroke-linejoin="round"/>
<path id="Vector_4" d="M18.558 19.1635C20.2299 19.1635 21.5853 17.8082 21.5853 16.1363C21.5853 14.4644 20.2299 13.109 18.558 13.109C16.8861 13.109 15.5308 14.4644 15.5308 16.1363C15.5308 17.8082 16.8861 19.1635 18.558 19.1635Z" stroke="currentColor" stroke-width="1.6" stroke-linecap="round" stroke-linejoin="round"/>
<path id="Vector 1" d="M18.1947 1.12115L19.6478 7.29673C19.89 7.83729 20.5197 8.95734 21.1009 9.11308C21.6821 9.26882 23.7649 9.17797 24.7336 9.11308" stroke="currentColor" stroke-width="1.6"/>
</g>
</svg>
