<svg xmlns="http://www.w3.org/2000/svg" width="24" height="24" fill="none"><path stroke="#3b82f6" stroke-linecap="round" stroke-linejoin="round" stroke-width="1.999" d="M5.998 21.993V3.999a2 2 0 0 1 2-2h7.997a2 2 0 0 1 1.999 2v17.994zM5.998 11.996h-2a2 2 0 0 0-1.999 2v5.997a2 2 0 0 0 2 2h1.999"/><path stroke="#3b82f6" stroke-linecap="round" stroke-linejoin="round" stroke-width="1.999" d="M17.994 8.997h2a2 2 0 0 1 1.999 2v8.996a2 2 0 0 1-2 2h-2M9.997 5.998h3.998M9.997 9.997h3.998M9.997 13.995h3.998M9.997 17.994h3.998"/></svg>