<svg width="24" height="24" viewBox="0 0 24 24" fill="none" xmlns="http://www.w3.org/2000/svg">
<g clip-path="url(#clip0_2798_11752)">
<path d="M15 21.5V13.5C15 13.2348 14.8946 12.9804 14.7071 12.7929C14.5196 12.6054 14.2652 12.5 14 12.5H10C9.73478 12.5 9.48043 12.6054 9.29289 12.7929C9.10536 12.9804 9 13.2348 9 13.5V21.5" stroke="#8B6357" stroke-width="1.66667" stroke-linecap="round" stroke-linejoin="round"/>
<path d="M3 10.5005C2.99993 10.2095 3.06333 9.9221 3.18579 9.6582C3.30824 9.39429 3.4868 9.16028 3.709 8.97248L10.709 2.97248C11.07 2.66739 11.5274 2.5 12 2.5C12.4726 2.5 12.93 2.66739 13.291 2.97248L20.291 8.97248C20.5132 9.16028 20.6918 9.39429 20.8142 9.6582C20.9367 9.9221 21.0001 10.2095 21 10.5005V19.5005C21 20.0309 20.7893 20.5396 20.4142 20.9147C20.0391 21.2898 19.5304 21.5005 19 21.5005H5C4.46957 21.5005 3.96086 21.2898 3.58579 20.9147C3.21071 20.5396 3 20.0309 3 19.5005V10.5005Z" stroke="#8B6357" stroke-width="1.66667" stroke-linecap="round" stroke-linejoin="round"/>
</g>
<defs>
<clipPath id="clip0_2798_11752">
<rect width="24" height="24" fill="white"/>
</clipPath>
</defs>
</svg>
