<svg xmlns="http://www.w3.org/2000/svg" width="24" height="24" viewBox="0 0 24 24" fill="none">
  <path d="M18.9936 6.99768V3.99869C18.9936 3.73356 18.8883 3.47929 18.7008 3.29182C18.5134 3.10434 18.2591 2.99902 17.994 2.99902H4.99835C4.4681 2.99902 3.95956 3.20967 3.58461 3.58461C3.20967 3.95956 2.99902 4.4681 2.99902 4.99835C2.99902 5.5286 3.20967 6.03714 3.58461 6.41209C3.95956 6.78703 4.4681 6.99768 4.99835 6.99768H19.9933C20.2584 6.99768 20.5127 7.103 20.7002 7.29047C20.8876 7.47795 20.993 7.73221 20.993 7.99734V11.996M20.993 11.996H17.994C17.4637 11.996 16.9552 12.2066 16.5802 12.5816C16.2053 12.9565 15.9946 13.4651 15.9946 13.9953C15.9946 14.5256 16.2053 15.0341 16.5802 15.4091C16.9552 15.784 17.4637 15.9946 17.994 15.9946H20.993C21.2581 15.9946 21.5124 15.8893 21.6998 15.7019C21.8873 15.5144 21.9926 15.2601 21.9926 14.995V12.9957C21.9926 12.7305 21.8873 12.4763 21.6998 12.2888C21.5124 12.1013 21.2581 11.996 20.993 11.996Z" stroke="currentColor" stroke-width="1.99933" stroke-linecap="round" stroke-linejoin="round"/>
  <path d="M2.99902 4.99829V18.9936C2.99902 19.5238 3.20967 20.0324 3.58461 20.4073C3.95956 20.7823 4.4681 20.9929 4.99835 20.9929H19.9933C20.2584 20.9929 20.5127 20.8876 20.7002 20.7001C20.8876 20.5126 20.993 20.2584 20.993 19.9932V15.9946" stroke="currentColor" stroke-width="1.99933" stroke-linecap="round" stroke-linejoin="round"/>
</svg>
