<svg preserveAspectRatio="none" width="100%" height="100%" overflow="visible" style="display: block;" viewBox="0 0 15 13" fill="none" xmlns="http://www.w3.org/2000/svg">
<g id="Avatar Placeholder">
<path fill-rule="evenodd" clip-rule="evenodd" d="M10.046 3C10.046 4.65685 8.70288 6 7.04602 6C5.38917 6 4.04602 4.65685 4.04602 3C4.04602 1.34315 5.38917 0 7.04602 0C8.70288 0 10.046 1.34315 10.046 3ZM9.04602 3C9.04602 4.10457 8.15059 5 7.04602 5C5.94145 5 5.04602 4.10457 5.04602 3C5.04602 1.89543 5.94145 1 7.04602 1C8.15059 1 9.04602 1.89543 9.04602 3Z" fill="var(--fill-0, white)"/>
<path d="M7.04602 7.5C3.80883 7.5 1.05066 9.41421 0 12.096C0.255948 12.3502 0.525569 12.5906 0.807664 12.816C1.59004 10.3538 4.04438 8.5 7.04602 8.5C10.0477 8.5 12.502 10.3538 13.2844 12.816C13.5665 12.5906 13.8361 12.3502 14.092 12.096C13.0414 9.41421 10.2832 7.5 7.04602 7.5Z" fill="var(--fill-0, white)"/>
</g>
</svg>
