<svg preserveAspectRatio="none" width="100%" height="100%" overflow="visible" style="display: block;" viewBox="0 0 14 14" fill="none" xmlns="http://www.w3.org/2000/svg">
<g id="AuthDialog" clip-path="url(#clip0_0_62)">
<path id="Vector" d="M13.16 7.14583C13.16 6.69083 13.1192 6.25333 13.0433 5.83333H7V8.31833H10.4533C10.3017 9.1175 9.84667 9.79417 9.16417 10.2492V11.865H11.2467C12.46 10.745 13.16 9.1 13.16 7.14583Z" fill="var(--fill-0, #4285F4)"/>
<path id="Vector_2" d="M7 13.4167C8.7325 13.4167 10.185 12.845 11.2467 11.865L9.16417 10.2492C8.5925 10.6342 7.86333 10.8675 7 10.8675C5.33167 10.8675 3.91417 9.74167 3.40667 8.225H1.27167V9.88167C2.3275 11.9758 4.49167 13.4167 7 13.4167Z" fill="var(--fill-0, #34A853)"/>
<path id="Vector_3" d="M3.40667 8.21917C3.27833 7.83417 3.2025 7.42583 3.2025 7C3.2025 6.57417 3.27833 6.16583 3.40667 5.78083V4.12417H1.27167C0.834167 4.9875 0.583334 5.96167 0.583334 7C0.583334 8.03833 0.834167 9.0125 1.27167 9.87583L2.93417 8.58083L3.40667 8.21917Z" fill="var(--fill-0, #FBBC05)"/>
<path id="Vector_4" d="M7 3.13833C7.945 3.13833 8.785 3.465 9.45583 4.095L11.2933 2.2575C10.1792 1.21917 8.7325 0.583334 7 0.583334C4.49167 0.583334 2.3275 2.02417 1.27167 4.12417L3.40667 5.78083C3.91417 4.26417 5.33167 3.13833 7 3.13833Z" fill="var(--fill-0, #EA4335)"/>
</g>
<defs>
<clipPath id="clip0_0_62">
<rect width="14" height="14" fill="white"/>
</clipPath>
</defs>
</svg>
