<svg preserveAspectRatio="none" width="100%" height="100%" overflow="visible" style="display: block;" viewBox="0 0 31 36" fill="none" xmlns="http://www.w3.org/2000/svg">
<g id="Group 65">
<path id="Vector (Stroke)" d="M31 19.7813C31 20.7459 30.2181 21.5278 29.2535 21.5278C28.289 21.5278 27.507 20.7459 27.507 19.7813V6.67986L19.8632 12.4187L18.9853 12.2158C18.641 12.1362 17.3559 11.9229 15.7183 11.9229C14.0187 11.9229 12.6829 12.1372 12.3187 12.2188L11.4638 12.41L3.49296 6.61222V19.7813C3.49296 20.7459 2.71103 21.5278 1.74648 21.5278C0.781925 21.5278 0 20.7459 0 19.7813V5.95885C0 3.50694 2.78171 2.09049 4.7646 3.5327L12.3639 9.05991C13.1889 8.94134 14.372 8.82712 15.7183 8.82712C17.0037 8.82712 18.1369 8.93729 18.9397 9.05424L26.1989 3.60444C28.1764 2.11982 31 3.53078 31 6.00358V19.7813Z" fill="var(--fill-0, white)"/>
<path id="Union" d="M2.5989 23.9241C3.07448 23.9241 3.4553 24.3105 3.49179 24.7847C3.62886 26.5658 4.22321 28.0585 5.54299 29.19C7.13325 30.5534 10.0808 31.6601 15.4786 31.675C20.8769 31.6601 23.8247 30.5535 25.415 29.19C26.7347 28.0585 27.3291 26.5658 27.4662 24.7847C27.5027 24.3105 27.8835 23.9241 28.3591 23.9241H30.0813C30.5569 23.9241 30.9455 24.3099 30.9177 24.7847C30.7715 27.2844 29.9457 29.8425 27.6569 31.8049C25.1833 33.9257 21.2943 35.0894 15.5896 35.1186L15.5887 35.1194L15.5879 35.1202C15.5514 35.1202 15.5149 35.1199 15.4786 35.1198C15.4424 35.1199 15.406 35.1202 15.3697 35.1202L15.3688 35.1194L15.368 35.1186C9.66347 35.0894 5.77466 33.9256 3.30108 31.8049C1.01224 29.8425 0.18642 27.2844 0.04023 24.7847C0.0124641 24.3099 0.4011 23.9241 0.876678 23.9241H2.5989Z" fill="var(--fill-0, white)"/>
</g>
</svg>
