<svg width="20" height="20" viewBox="0 0 20 20" fill="none" xmlns="http://www.w3.org/2000/svg">
<g clip-path="url(#clip0_2597_5350)">
<path d="M12.5 17.9169V11.2502C12.5 11.0292 12.4122 10.8172 12.2559 10.6609C12.0996 10.5047 11.8877 10.4169 11.6667 10.4169H8.33333C8.11232 10.4169 7.90036 10.5047 7.74408 10.6609C7.5878 10.8172 7.5 11.0292 7.5 11.2502V17.9169" stroke="#8B6357" stroke-width="1.66667" stroke-linecap="round" stroke-linejoin="round"/>
<path d="M2.5 8.7502C2.49994 8.50775 2.55278 8.26822 2.65482 8.04829C2.75687 7.82837 2.90566 7.63336 3.09083 7.47686L8.92417 2.47686C9.22499 2.22262 9.60613 2.08313 10 2.08313C10.3939 2.08313 10.775 2.22262 11.0758 2.47686L16.9092 7.47686C17.0943 7.63336 17.2431 7.82837 17.3452 8.04829C17.4472 8.26822 17.5001 8.50775 17.5 8.7502V16.2502C17.5 16.6922 17.3244 17.1161 17.0118 17.4287C16.6993 17.7413 16.2754 17.9169 15.8333 17.9169H4.16667C3.72464 17.9169 3.30072 17.7413 2.98816 17.4287C2.67559 17.1161 2.5 16.6922 2.5 16.2502V8.7502Z" stroke="#8B6357" stroke-width="1.66667" stroke-linecap="round" stroke-linejoin="round"/>
</g>
<defs>
<clipPath id="clip0_2597_5350">
<rect width="20" height="20" fill="white"/>
</clipPath>
</defs>
</svg>
