<svg xmlns="http://www.w3.org/2000/svg" width="48" height="48" viewBox="0 0 48 48" fill="none">
  <path fill-rule="evenodd" clip-rule="evenodd" d="M6.58209 29.0969C6.58209 29.7272 6.67586 30.3576 6.89947 31.1067L6.96392 31.3196C7.912 34.148 10.5222 36.048 13.4571 36.0481H40.0723L38.421 41.3586C37.9532 43.1641 36.2848 44.3888 34.459 44.3889C34.1027 44.3886 33.7472 44.3429 33.4024 44.2522L5.05279 36.5764C2.86589 35.9665 1.56294 33.6776 2.13482 31.47L6.58209 16.4592V29.0969ZM41.4161 3.6106C43.9426 3.6106 46.0001 5.69109 46.0001 8.24536V28.634C46 31.1884 43.9426 33.2678 41.4161 33.2678H13.9151C11.3892 33.2676 9.33212 31.1882 9.33209 28.634V8.24536C9.33209 5.69123 11.3892 3.61083 13.9151 3.6106H41.4161ZM13.9151 7.31763C13.4094 7.31786 12.9991 7.73374 12.9991 8.24536V25.7405L18.0587 20.6262C19.3108 19.3587 21.3516 19.3589 22.6055 20.6262L24.8243 22.8635L31.6338 14.6008C32.2425 13.8631 33.1335 13.4363 34.0831 13.4309C35.0381 13.453 35.9267 13.8432 36.5411 14.5715L42.3331 21.4036V8.24536C42.3331 7.7336 41.9223 7.31763 41.4161 7.31763H13.9151ZM18.4991 9.17114C20.5213 9.17114 22.1659 10.8338 22.1661 12.8782C22.1661 14.9227 20.5214 16.5862 18.4991 16.5862C16.4769 16.5861 14.8321 14.9225 14.8321 12.8782C14.8322 10.8339 16.4769 9.17124 18.4991 9.17114Z" fill="#A3A3A3"/>
</svg>