<svg xmlns="http://www.w3.org/2000/svg" width="14" height="14" viewBox="0 0 14 14" fill="none">
  <path d="M6.72071 1.33835C6.74627 1.28671 6.78574 1.24325 6.83469 1.21287C6.88363 1.18248 6.94009 1.16638 6.9977 1.16638C7.05531 1.16638 7.11177 1.18248 7.16072 1.21287C7.20966 1.24325 7.24914 1.28671 7.27469 1.33835L8.62174 4.06684C8.71048 4.24643 8.84147 4.4018 9.00347 4.51962C9.16548 4.63744 9.35365 4.71419 9.55184 4.74328L12.5643 5.18413C12.6214 5.1924 12.675 5.21648 12.7191 5.25364C12.7633 5.2908 12.7961 5.33957 12.8139 5.39442C12.8318 5.44927 12.8339 5.50801 12.8201 5.56401C12.8063 5.62001 12.7771 5.67102 12.7358 5.71129L10.5572 7.83274C10.4135 7.97275 10.306 8.14558 10.2439 8.33636C10.1819 8.52713 10.1671 8.73012 10.2009 8.92787L10.7152 11.9252C10.7253 11.9823 10.7191 12.041 10.6974 12.0947C10.6757 12.1484 10.6394 12.195 10.5925 12.229C10.5456 12.2631 10.4901 12.2832 10.4323 12.2873C10.3745 12.2913 10.3167 12.279 10.2656 12.2518L7.57268 10.8359C7.39524 10.7427 7.19782 10.694 6.99741 10.694C6.797 10.694 6.59958 10.7427 6.42215 10.8359L3.7298 12.2518C3.67868 12.2788 3.62099 12.291 3.56329 12.2869C3.50559 12.2828 3.4502 12.2626 3.40342 12.2286C3.35664 12.1945 3.32034 12.1481 3.29866 12.0944C3.27698 12.0408 3.27079 11.9822 3.28079 11.9252L3.79453 8.92846C3.82847 8.73062 3.81377 8.52749 3.75169 8.3366C3.68962 8.14571 3.58204 7.97278 3.43823 7.83274L1.25963 5.71187C1.218 5.67166 1.18849 5.62055 1.17447 5.56438C1.16046 5.50821 1.16251 5.44924 1.18037 5.39417C1.19824 5.33911 1.23122 5.29017 1.27554 5.25293C1.31986 5.2157 1.37376 5.19166 1.43108 5.18355L4.44298 4.74328C4.6414 4.71442 4.82983 4.63777 4.99205 4.51993C5.15428 4.4021 5.28544 4.24661 5.37425 4.06684L6.72071 1.33835Z" fill="#633479"/>
</svg>