<svg width="20" height="20" viewBox="0 0 20 20" fill="none" xmlns="http://www.w3.org/2000/svg">
<path d="M9.16683 10.0001C9.16683 10.4603 9.53993 10.8334 10.0002 10.8334C10.4604 10.8334 10.8335 10.4603 10.8335 10.0001C10.8335 9.53984 10.4604 9.16675 10.0002 9.16675C9.53993 9.16675 9.16683 9.53984 9.16683 10.0001Z" stroke="#8B6357" stroke-width="1.66667" stroke-linecap="round" stroke-linejoin="round"/>
<path d="M14.9998 10.0001C14.9998 10.4603 15.3729 10.8334 15.8332 10.8334C16.2934 10.8334 16.6665 10.4603 16.6665 10.0001C16.6665 9.53984 16.2934 9.16675 15.8332 9.16675C15.3729 9.16675 14.9998 9.53984 14.9998 10.0001Z" stroke="#8B6357" stroke-width="1.66667" stroke-linecap="round" stroke-linejoin="round"/>
<path d="M3.33333 10.0001C3.33333 10.4603 3.70643 10.8334 4.16667 10.8334C4.6269 10.8334 5 10.4603 5 10.0001C5 9.53984 4.6269 9.16675 4.16667 9.16675C3.70643 9.16675 3.33333 9.53984 3.33333 10.0001Z" stroke="#8B6357" stroke-width="1.66667" stroke-linecap="round" stroke-linejoin="round"/>
</svg>
