<svg xmlns="http://www.w3.org/2000/svg" width="13" height="13" viewBox="0 0 13 13" fill="none">
  <g clip-path="url(#clip0_5762_30152)">
    <path d="M11.0913 9.18751L7.00802 2.04168C6.91898 1.88458 6.78987 1.7539 6.63384 1.66299C6.47782 1.57207 6.30047 1.52417 6.11989 1.52417C5.93931 1.52417 5.76196 1.57207 5.60594 1.66299C5.44992 1.7539 5.3208 1.88458 5.23177 2.04168L1.14843 9.18751C1.05844 9.34337 1.01125 9.52026 1.01164 9.70023C1.01204 9.88021 1.06002 10.0569 1.1507 10.2123C1.24139 10.3678 1.37156 10.4965 1.52803 10.5855C1.68449 10.6744 1.86169 10.7204 2.04166 10.7188H10.2083C10.3874 10.7186 10.5633 10.6713 10.7184 10.5816C10.8734 10.4919 11.0021 10.363 11.0916 10.2079C11.1811 10.0527 11.2282 9.87677 11.2281 9.69767C11.2281 9.51856 11.1809 9.34262 11.0913 9.18751Z" stroke="#BE123C" stroke-width="1.02083" stroke-linecap="round" stroke-linejoin="round"/>
    <path d="M6.125 4.59375V6.63542" stroke="#BE123C" stroke-width="1.02083" stroke-linecap="round" stroke-linejoin="round"/>
    <path d="M6.125 8.67709H6.1301" stroke="#BE123C" stroke-width="1.02083" stroke-linecap="round" stroke-linejoin="round"/>
  </g>
  <defs>
    <clipPath id="clip0_5762_30152">
      <rect width="12.25" height="12.25" fill="white"/>
    </clipPath>
  </defs>
</svg>
