<svg preserveAspectRatio="none" width="100%" height="100%" overflow="visible" style="display: block;" viewBox="0 0 24 24" fill="none" xmlns="http://www.w3.org/2000/svg">
<path id="Ellipse 1" d="M20.2582 24C22.3247 24 24.0298 22.3148 23.7089 20.2733C23.4151 18.4041 22.9006 16.5718 22.1731 14.8156C20.967 11.9038 19.1992 9.25804 16.9706 7.02944C14.742 4.80083 12.0962 3.033 9.1844 1.82689C7.42818 1.09944 5.59591 0.584918 3.72669 0.291103C1.68521 -0.0297888 -9.75845e-07 1.67526 -8.85514e-07 3.7418V3.7418C-7.95183e-07 5.80834 1.69616 7.44147 3.7099 7.90566C4.59967 8.11076 5.47298 8.38977 6.32055 8.74084C8.32441 9.57087 10.1452 10.7875 11.6789 12.3211C13.2125 13.8548 14.4291 15.6756 15.2592 17.6794C15.6102 18.527 15.8892 19.4003 16.0943 20.2901C16.5585 22.3038 18.1917 24 20.2582 24V24Z" fill="var(--fill-0, white)"/>
</svg>
